<svg xmlns="http://www.w3.org/2000/svg" width="640" height="512" viewBox="0 0 640 512">
  <path id="ambulance-solid" d="M624,352H608V243.9A48,48,0,0,0,593.9,210L494,110.1A48,48,0,0,0,460.1,96H416V48A48.012,48.012,0,0,0,368,0H48A48.012,48.012,0,0,0,0,48V368a48.012,48.012,0,0,0,48,48H64a96,96,0,0,0,192,0H384a96,96,0,0,0,192,0h48a16.047,16.047,0,0,0,16-16V368A16.047,16.047,0,0,0,624,352ZM160,464a48,48,0,1,1,48-48A48.012,48.012,0,0,1,160,464ZM304,216a8.024,8.024,0,0,1-8,8H240v56a8.024,8.024,0,0,1-8,8H184a8.024,8.024,0,0,1-8-8V224H120a8.024,8.024,0,0,1-8-8V168a8.024,8.024,0,0,1,8-8h56V104a8.024,8.024,0,0,1,8-8h48a8.024,8.024,0,0,1,8,8v56h56a8.024,8.024,0,0,1,8,8ZM480,464a48,48,0,1,1,48-48A48.012,48.012,0,0,1,480,464Zm80-208H416V144h44.1L560,243.9Z" fill="#fd0505"/>
</svg>
